<svg width="40" height="40" viewBox="0 0 40 40" fill="none" xmlns="http://www.w3.org/2000/svg">
<path fill-rule="evenodd" clip-rule="evenodd" d="M20 5C11.7157 5 5 11.7157 5 20C5 28.2843 11.7157 35 20 35C28.2843 35 35 28.2843 35 20C35 11.7157 28.2843 5 20 5ZM3 20C3 10.6112 10.6112 3 20 3C29.3888 3 37 10.6112 37 20C37 29.3888 29.3888 37 20 37C10.6112 37 3 29.3888 3 20Z" fill="white"/>
<path fill-rule="evenodd" clip-rule="evenodd" d="M20.1802 12.8906C18.6946 12.8906 17.4902 14.095 17.4902 15.5806C17.4902 17.0663 18.6946 18.2706 20.1802 18.2706C21.6659 18.2706 22.8702 17.0663 22.8702 15.5806C22.8702 14.095 21.6659 12.8906 20.1802 12.8906ZM15.4902 15.5806C15.4902 12.9904 17.59 10.8906 20.1802 10.8906C22.7705 10.8906 24.8702 12.9904 24.8702 15.5806C24.8702 18.1708 22.7705 20.2706 20.1802 20.2706C17.59 20.2706 15.4902 18.1708 15.4902 15.5806Z" fill="white"/>
<path fill-rule="evenodd" clip-rule="evenodd" d="M18.9604 23.2803C17.1327 23.2803 15.6504 24.7626 15.6504 26.5903C15.6504 27.1426 15.2027 27.5903 14.6504 27.5903C14.0981 27.5903 13.6504 27.1426 13.6504 26.5903C13.6504 23.658 16.0281 21.2803 18.9604 21.2803H21.3504C21.8681 21.2803 22.3594 21.3546 22.8319 21.4878C23.3634 21.6377 23.6728 22.1902 23.5228 22.7217C23.3729 23.2533 22.8205 23.5626 22.2889 23.4127C21.9814 23.326 21.6727 23.2803 21.3504 23.2803H18.9604Z" fill="white"/>
<path fill-rule="evenodd" clip-rule="evenodd" d="M26.0312 22.7207C26.5835 22.7207 27.0312 23.1684 27.0312 23.7207V28.1007C27.0312 28.653 26.5835 29.1007 26.0312 29.1007C25.479 29.1007 25.0312 28.653 25.0312 28.1007V23.7207C25.0312 23.1684 25.479 22.7207 26.0312 22.7207Z" fill="white"/>
<path fill-rule="evenodd" clip-rule="evenodd" d="M22.8408 25.9111C22.8408 25.3588 23.2885 24.9111 23.8408 24.9111H28.2308C28.7831 24.9111 29.2308 25.3588 29.2308 25.9111C29.2308 26.4634 28.7831 26.9111 28.2308 26.9111H23.8408C23.2885 26.9111 22.8408 26.4634 22.8408 25.9111Z" fill="white"/>
</svg>
