<svg width="40" height="40" viewBox="0 0 40 40" fill="none" xmlns="http://www.w3.org/2000/svg">
<path fill-rule="evenodd" clip-rule="evenodd" d="M5 8V12.42H35V8H5ZM3 7.97C3 6.882 3.882 6 4.97 6H35.03C36.118 6 37 6.882 37 7.97V12.45C37 13.538 36.118 14.42 35.03 14.42H4.97C3.882 14.42 3 13.538 3 12.45V7.97Z" fill="white"/>
<path fill-rule="evenodd" clip-rule="evenodd" d="M35.851 12.6751C36.196 13.1063 36.1262 13.7356 35.695 14.0806L24.3904 23.1263C24.2884 23.2112 24.2302 23.3386 24.2302 23.4598V30.5198C24.2302 31.4226 23.7335 32.2405 22.9398 32.6627L22.9376 32.6639L19.1159 34.6848C17.5 35.5352 15.5602 34.3624 15.5602 32.5398V23.6898C15.5602 23.5712 15.5054 23.4493 15.4067 23.3653C15.4062 23.3649 15.4058 23.3645 15.4053 23.3641L4.26932 14.0675C3.84535 13.7136 3.78859 13.0829 4.14252 12.659C4.49646 12.235 5.12708 12.1782 5.55104 12.5322L16.691 21.8322L16.6951 21.8356C17.2355 22.2915 17.5602 22.969 17.5602 23.6898V32.5398C17.5602 32.8572 17.9 33.0643 18.184 32.9151C18.1842 32.9151 18.1839 32.9152 18.184 32.9151L22.0006 30.897C22.0009 30.8968 22.0003 30.8971 22.0006 30.897C22.1463 30.819 22.2302 30.6767 22.2302 30.5198V23.4598C22.2302 22.7223 22.5708 22.0309 23.1269 21.5759L23.1354 21.569L34.4454 12.519C34.8766 12.174 35.5059 12.2438 35.851 12.6751Z" fill="white"/>
</svg>
