<svg width="417" height="213" viewBox="0 0 417 213" fill="none" xmlns="http://www.w3.org/2000/svg">
<g clip-path="url(#clip0_2527_8389)">
<g clip-path="url(#clip1_2527_8389)">
<path d="M51.4086 148.629V211.847H41.2484V184.927H10.1601V211.847H0V148.629H10.1601V175.288H41.2484V148.629H51.4086ZM63.7397 193.09C63.7397 189.443 64.6226 186.114 66.3883 183.104C68.154 180.093 70.6 177.734 73.7262 176.026C76.8524 174.318 80.4127 173.465 84.4073 173.465C88.4019 173.465 91.9478 174.318 95.0451 176.026C98.1423 177.734 100.53 180.079 102.209 183.06C103.888 186.042 104.728 189.385 104.728 193.09C104.728 196.795 103.888 200.138 102.209 203.12C100.53 206.101 98.1423 208.46 95.0451 210.197C91.9478 211.934 88.373 212.802 84.3205 212.802C80.3838 212.802 76.8524 212.006 73.7262 210.414C70.6 208.822 68.154 206.535 66.3883 203.554C64.6226 200.572 63.7397 197.084 63.7397 193.09ZM73.5525 193.177C73.5525 196.477 74.5656 199.241 76.5918 201.47C78.6181 203.699 81.1364 204.813 84.1468 204.813C87.273 204.813 89.8348 203.713 91.832 201.513C93.8293 199.313 94.828 196.535 94.828 193.177C94.828 189.819 93.8293 187.026 91.832 184.797C89.8348 182.568 87.273 181.454 84.1468 181.454C81.1364 181.454 78.6181 182.597 76.5918 184.884C74.5656 187.17 73.5525 189.935 73.5525 193.177ZM118.535 158.963H128.261V175.114H137.813V182.756H128.261V211.847H118.535V182.756H112.196V175.114H118.535V158.963ZM165.081 204.466C167.802 204.466 170.551 203.511 173.33 201.6L177.759 208.808C175.791 210.023 173.678 210.993 171.42 211.717C169.162 212.44 166.991 212.802 164.907 212.802C160.681 212.802 157.019 211.963 153.922 210.284C150.825 208.605 148.451 206.289 146.801 203.337C145.151 200.384 144.326 196.998 144.326 193.177C144.326 189.587 145.252 186.288 147.105 183.277C148.958 180.267 151.476 177.879 154.66 176.113C157.844 174.347 161.318 173.465 165.081 173.465C170.059 173.465 174.199 174.926 177.499 177.85C180.798 180.773 182.998 184.898 184.098 190.224L155.789 199.776C156.773 201.282 158.076 202.44 159.697 203.25C161.318 204.06 163.112 204.466 165.081 204.466ZM164.299 181.106C161.231 181.106 158.727 182.177 156.787 184.319C154.848 186.461 153.878 189.24 153.878 192.656C153.878 193.293 153.907 193.785 153.965 194.132L173.243 187.272C172.491 185.477 171.391 184.001 169.944 182.843C168.496 181.685 166.615 181.106 164.299 181.106ZM193.651 144.113H203.377V211.847H193.651V144.113ZM246.535 148.629H284.918V158.355H256.696V176.157H281.271V185.796H256.696V211.847H246.535V148.629ZM321.39 175.114H330.335V211.847H320.609V206.55C319.277 208.113 317.483 209.546 315.225 210.848C312.967 212.151 310.333 212.802 307.323 212.802C303.791 212.802 300.636 212.064 297.857 210.588C295.078 209.112 292.878 206.926 291.257 204.032C289.636 201.137 288.826 197.634 288.826 193.524C288.826 189.53 289.665 186.013 291.344 182.973C293.023 179.934 295.266 177.589 298.074 175.939C300.882 174.29 303.965 173.465 307.323 173.465C313.286 173.465 317.743 175.664 320.696 180.064L321.39 175.114ZM310.015 204.813C312.678 204.813 314.921 204.133 316.745 202.772C318.568 201.412 319.856 199.487 320.609 196.998V189.009C319.914 186.751 318.568 184.927 316.571 183.538C314.574 182.148 312.272 181.454 309.667 181.454C306.599 181.454 303.994 182.539 301.852 184.71C299.71 186.881 298.639 189.645 298.639 193.003C298.639 195.203 299.16 197.2 300.202 198.995C301.244 200.79 302.633 202.208 304.37 203.25C306.107 204.292 307.988 204.813 310.015 204.813ZM327.469 156.965L315.746 168.602H309.667L316.701 156.965H327.469ZM374.188 208.46C372.567 209.792 370.585 210.848 368.24 211.63C365.895 212.411 363.536 212.802 361.163 212.802C357.11 212.802 353.535 212.021 350.438 210.458C347.341 208.894 344.953 206.651 343.274 203.728C341.595 200.804 340.756 197.374 340.756 193.437C340.756 189.559 341.653 186.157 343.448 183.234C345.242 180.31 347.63 178.067 350.612 176.504C353.593 174.941 356.792 174.159 360.207 174.159C365.997 174.159 370.773 175.722 374.536 178.849L369.673 185.188C368.573 184.319 367.285 183.581 365.809 182.973C364.332 182.365 362.755 182.062 361.076 182.062C358.123 182.062 355.619 183.147 353.564 185.318C351.509 187.489 350.481 190.195 350.481 193.437C350.481 196.679 351.567 199.386 353.738 201.557C355.909 203.728 358.673 204.813 362.031 204.813C364.926 204.813 367.357 204.003 369.325 202.382L374.188 208.46ZM384.175 175.114H393.901V211.847H384.175V175.114ZM383.741 162.002C383.741 160.555 384.32 159.324 385.478 158.311C386.635 157.298 387.938 156.792 389.385 156.792C390.775 156.792 392.034 157.298 393.163 158.311C394.292 159.324 394.856 160.555 394.856 162.002C394.856 163.449 394.292 164.665 393.163 165.649C392.034 166.633 390.775 167.125 389.385 167.125C387.938 167.125 386.635 166.633 385.478 165.649C384.32 164.665 383.741 163.449 383.741 162.002ZM407.274 144.113H417V211.847H407.274V144.113Z" fill="white"/>
</g>
<g clip-path="url(#clip2_2527_8389)">
<path d="M285.292 68.3776C294.969 69.1635 304.349 72.0963 312.75 76.9625C295.671 106.545 259.027 117.789 228.601 103.79C252.116 101.327 272.409 88.2294 284.626 69.4227L285.069 68.732L285.292 68.3776ZM272.054 68.6499C261.579 81.8662 246.119 90.9516 228.512 93.0613C229.868 91.3417 231.311 89.6928 232.836 88.1212C233.343 87.6289 233.841 87.1279 234.331 86.6187C244.46 76.8075 257.376 70.6763 270.984 68.788L272.054 68.6499ZM146.452 68.2212C159.763 70.1589 172.391 76.1598 182.362 85.6987C183.044 86.4061 183.739 87.1004 184.447 87.7811C185.58 88.9656 186.666 90.1936 187.704 91.4624C171.551 89.1481 157.298 80.9475 147.187 69.1047L146.639 68.4557L146.452 68.2212ZM172.211 40.6979C185.426 51.1724 194.51 66.6314 196.62 84.2366C194.903 82.8833 193.258 81.4432 191.688 79.9219C191.189 79.4098 190.685 78.9055 190.172 78.4116C180.363 68.2837 174.234 55.3685 172.346 41.7638L172.229 40.8751L172.211 40.6979ZM244.529 42.891C242.591 56.2012 236.592 68.8284 227.055 78.7986C226.351 79.4773 225.659 80.1698 224.982 80.8758C223.793 82.0121 222.561 83.1023 221.289 84.1441C223.603 67.9918 231.804 53.7382 243.647 43.6273L244.296 43.08L244.529 42.891ZM208.612 32.4009C214.825 47.9328 215.069 65.6996 208.327 81.9092C201.961 66.0945 202.194 48.8567 208.092 33.6884L208.414 32.8778L208.612 32.4009ZM286.211 27.9429C286.211 38.5738 283.681 48.6131 279.191 57.4899C269.003 57.6041 258.941 59.7492 249.593 63.7997C253.481 54.8106 255.61 45.1599 255.866 35.3694C265.231 30.4755 275.644 27.9271 286.211 27.9429ZM131.501 26.5394C142.131 26.5394 152.17 29.0675 161.048 33.5594C161.162 43.7472 163.307 53.8099 167.358 63.1585C158.369 59.2704 148.719 57.1417 138.929 56.8879C134.034 47.5216 131.485 37.1075 131.501 26.5394ZM236.417 0.691957C241.478 9.42821 244.445 19.2184 245.085 29.2942C236.675 34.6915 229.401 41.682 223.675 49.8719C222.736 39.6549 219.753 29.7307 214.905 20.6884C220.464 12.476 227.821 5.63758 236.417 0.691957ZM180.522 0C189.64 5.26462 197.016 12.3862 202.442 20.6128C197.8 29.0388 194.787 38.2637 193.561 47.8051C187.749 39.6777 180.402 32.7664 171.936 27.4607C172.721 17.7828 175.655 8.40174 180.522 0Z" fill="#005477"/>
<path d="M132.852 67.667L131.699 67.7478C122.025 68.535 112.648 71.4678 104.25 76.3328C121.602 106.389 159.151 117.515 189.857 102.467C165.911 100.214 145.185 86.8907 132.852 67.667Z" fill="white"/>
<path opacity="0.1" d="M234.331 86.6192C233.841 87.1284 233.343 87.6293 232.836 88.1217C231.311 89.6933 229.868 91.3422 228.512 93.0618C246.119 90.9521 261.579 81.8667 272.054 68.6504L270.984 68.7885C257.376 70.6768 244.46 76.808 234.331 86.6192Z" fill="white"/>
<path opacity="0.9" d="M147.187 69.1052C157.298 80.948 171.551 89.1486 187.703 91.4629C186.666 90.1942 185.58 88.9661 184.447 87.7816C183.739 87.1009 183.043 86.4066 182.362 85.6992C172.39 76.1603 159.763 70.1594 146.452 68.2217L146.639 68.4562L147.187 69.1052Z" fill="white"/>
<path opacity="0.7" d="M172.21 40.6982L172.229 40.8755L172.346 41.7642C174.234 55.3688 180.363 68.2841 190.171 78.412C190.685 78.9058 191.189 79.4102 191.688 79.9223C193.257 81.4435 194.903 82.8836 196.619 84.2369C194.51 66.6317 185.425 51.1728 172.21 40.6982Z" fill="white"/>
<path opacity="0.3" d="M244.295 43.0796L243.647 43.6269C231.804 53.7378 223.603 67.9914 221.289 84.1436C222.561 83.1019 223.793 82.0117 224.982 80.8754C225.659 80.1694 226.35 79.4769 227.055 78.7982C236.591 68.828 242.591 56.2007 244.529 42.8906L244.295 43.0796Z" fill="white"/>
<path opacity="0.5" d="M208.414 32.8783L208.092 33.6889C202.194 48.8572 201.961 66.095 208.327 81.9097C215.069 65.7001 214.825 47.9333 208.612 32.4014L208.414 32.8783Z" fill="white"/>
<path opacity="0.2" d="M255.866 35.369C255.61 45.1594 253.481 54.8101 249.593 63.7992C258.941 59.7488 269.003 57.6037 279.191 57.4895C283.681 48.6126 286.211 38.5733 286.211 27.9425C275.644 27.9267 265.231 30.4751 255.866 35.369Z" fill="white"/>
<path opacity="0.8" d="M167.358 63.1582C163.307 53.8095 161.162 43.7468 161.048 33.559C152.17 29.0671 142.131 26.5391 131.501 26.5391C131.485 37.1072 134.034 47.5212 138.929 56.8875C148.719 57.1414 158.369 59.27 167.358 63.1582Z" fill="white"/>
<path opacity="0.4" d="M245.085 29.2947C244.444 19.2189 241.477 9.42864 236.417 0.692383C227.821 5.638 220.464 12.4764 214.905 20.6888C219.753 29.7311 222.736 39.6553 223.675 49.8723C229.401 41.6824 236.675 34.692 245.085 29.2947Z" fill="white"/>
<path opacity="0.6" d="M180.522 0C175.655 8.40175 172.721 17.7828 171.936 27.4607C180.402 32.7664 187.749 39.6777 193.561 47.8051C194.787 38.2638 197.8 29.0388 202.442 20.6128C197.015 12.3862 189.64 5.26462 180.522 0Z" fill="white"/>
</g>
</g>
<defs>
<clipPath id="clip0_2527_8389">
<rect width="417" height="212.802" fill="white"/>
</clipPath>
<clipPath id="clip1_2527_8389">
<rect width="417" height="68.6889" fill="white" transform="translate(0 144.113)"/>
</clipPath>
<clipPath id="clip2_2527_8389">
<rect width="208.5" height="109.769" fill="white" transform="translate(104.25)"/>
</clipPath>
</defs>
</svg>
