<svg width="209" height="110" viewBox="0 0 209 110" fill="none" xmlns="http://www.w3.org/2000/svg">
<g clip-path="url(#clip0_2527_8394)">
<path d="M181.042 68.3776C190.719 69.1635 200.099 72.0963 208.5 76.9625C191.421 106.545 154.777 117.789 124.351 103.79C147.866 101.327 168.159 88.2294 180.376 69.4227L180.819 68.732L181.042 68.3776ZM167.804 68.6499C157.329 81.8662 141.869 90.9516 124.262 93.0613C125.618 91.3417 127.061 89.6928 128.586 88.1212C129.093 87.6289 129.591 87.1279 130.081 86.6187C140.21 76.8075 153.126 70.6763 166.734 68.788L167.804 68.6499ZM42.2018 68.2212C55.5132 70.1589 68.1405 76.1598 78.112 85.6987C78.7936 86.4061 79.4887 87.1004 80.197 87.7811C81.3297 88.9656 82.416 90.1936 83.4535 91.4624C67.3013 89.1481 53.0477 80.9475 42.9368 69.1047L42.3895 68.4557L42.2018 68.2212ZM67.9607 40.6979C81.1757 51.1724 90.2598 66.6314 92.3695 84.2366C90.6534 82.8833 89.0076 81.4432 87.4385 79.9219C86.9394 79.4098 86.4351 78.9055 85.9216 78.4116C76.113 68.2837 69.9844 55.3685 68.0962 41.7638L67.9789 40.8751L67.9607 40.6979ZM140.279 42.891C138.341 56.2012 132.342 68.8284 122.805 78.7986C122.101 79.4773 121.409 80.1698 120.732 80.8758C119.543 82.0121 118.311 83.1023 117.039 84.1441C119.353 67.9918 127.554 53.7382 139.397 43.6273L140.046 43.08L140.279 42.891ZM104.362 32.4009C110.575 47.9328 110.819 65.6996 104.077 81.9092C97.711 66.0945 97.9443 48.8567 103.842 33.6884L104.164 32.8778L104.362 32.4009ZM181.961 27.9429C181.961 38.5738 179.431 48.6131 174.941 57.4899C164.753 57.6041 154.691 59.7492 145.343 63.7997C149.231 54.8106 151.36 45.1599 151.616 35.3694C160.981 30.4755 171.394 27.9271 181.961 27.9429ZM27.251 26.5394C37.8806 26.5394 47.9199 29.0675 56.7981 33.5594C56.9123 43.7472 59.0574 53.8099 63.1078 63.1585C54.1194 59.2704 44.4689 57.1417 34.6789 56.8879C29.7843 47.5216 27.2354 37.1075 27.251 26.5394ZM132.167 0.691957C137.228 9.42821 140.195 19.2184 140.835 29.2942C132.425 34.6915 125.151 41.682 119.425 49.8719C118.486 39.6549 115.503 29.7307 110.655 20.6884C116.214 12.476 123.571 5.63758 132.167 0.691957ZM76.272 0C85.39 5.26462 92.7657 12.3862 98.1919 20.6128C93.5502 29.0388 90.5374 38.2637 89.3111 47.8051C83.499 39.6777 76.1524 32.7664 67.6857 27.4607C68.4715 17.7828 71.4047 8.40174 76.272 0Z" fill="#005477"/>
<path d="M28.6023 67.667L27.449 67.7478C17.7753 68.535 8.39841 71.4678 0 76.3328C17.3524 106.389 54.9007 117.515 85.6075 102.467C61.6613 100.214 40.9351 86.8907 28.6023 67.667Z" fill="white"/>
<path opacity="0.1" d="M130.081 86.6192C129.591 87.1284 129.093 87.6293 128.586 88.1217C127.061 89.6933 125.618 91.3422 124.262 93.0618C141.869 90.9521 157.329 81.8667 167.804 68.6504L166.734 68.7885C153.126 70.6768 140.21 76.808 130.081 86.6192Z" fill="white"/>
<path opacity="0.9" d="M42.9366 69.1052C53.0476 80.948 67.3012 89.1486 83.4534 91.4629C82.4159 90.1942 81.3296 88.9661 80.1969 87.7816C79.4886 87.1009 78.7935 86.4066 78.1119 85.6992C68.1404 76.1603 55.5131 70.1594 42.2017 68.2217L42.3893 68.4562L42.9366 69.1052Z" fill="white"/>
<path opacity="0.7" d="M67.9604 40.6982L67.9787 40.8755L68.096 41.7642C69.9842 55.3688 76.1128 68.2841 85.9214 78.412C86.4348 78.9058 86.9392 79.4102 87.4383 79.9223C89.0074 81.4435 90.6532 82.8836 92.3693 84.2369C90.2595 66.6317 81.1754 51.1728 67.9604 40.6982Z" fill="white"/>
<path opacity="0.3" d="M140.045 43.0796L139.397 43.6269C127.554 53.7378 119.353 67.9914 117.039 84.1436C118.311 83.1019 119.543 82.0117 120.732 80.8754C121.409 80.1694 122.1 79.4769 122.805 78.7982C132.341 68.828 138.341 56.2007 140.279 42.8906L140.045 43.0796Z" fill="white"/>
<path opacity="0.5" d="M104.164 32.8783L103.842 33.6889C97.9443 48.8572 97.711 66.095 104.077 81.9097C110.819 65.7001 110.575 47.9333 104.362 32.4014L104.164 32.8783Z" fill="white"/>
<path opacity="0.2" d="M151.616 35.369C151.36 45.1594 149.231 54.8101 145.343 63.7992C154.691 59.7488 164.753 57.6037 174.941 57.4895C179.431 48.6126 181.961 38.5733 181.961 27.9425C171.394 27.9267 160.981 30.4751 151.616 35.369Z" fill="white"/>
<path opacity="0.8" d="M63.1078 63.1582C59.0574 53.8095 56.9123 43.7468 56.7981 33.559C47.9199 29.0671 37.8806 26.5391 27.251 26.5391C27.2354 37.1072 29.7843 47.5212 34.6789 56.8875C44.4689 57.1414 54.1194 59.27 63.1078 63.1582Z" fill="white"/>
<path opacity="0.4" d="M140.835 29.2947C140.194 19.2189 137.227 9.42864 132.167 0.692383C123.571 5.638 116.214 12.4764 110.655 20.6888C115.503 29.7311 118.486 39.6553 119.425 49.8723C125.151 41.6824 132.425 34.692 140.835 29.2947Z" fill="white"/>
<path opacity="0.6" d="M76.2718 0C71.4045 8.40175 68.4713 17.7828 67.6855 27.4607C76.1523 32.7664 83.4988 39.6777 89.3109 47.8051C90.5373 38.2638 93.55 29.0388 98.1917 20.6128C92.7655 12.3862 85.3898 5.26462 76.2718 0Z" fill="white"/>
</g>
<defs>
<clipPath id="clip0_2527_8394">
<rect width="208.5" height="109.769" fill="white"/>
</clipPath>
</defs>
</svg>
