<svg width="40" height="40" viewBox="0 0 40 40" fill="none" xmlns="http://www.w3.org/2000/svg">
<path fill-rule="evenodd" clip-rule="evenodd" d="M21.2797 12.3298C21.2797 13.0398 20.7097 13.6098 19.9997 13.6098C19.2897 13.6098 18.7197 13.0398 18.7197 12.3298C18.7197 11.6198 19.2897 11.0498 19.9997 11.0498C20.7097 11.0498 21.2797 11.6198 21.2797 12.3298ZM21.2797 19.9998C21.2797 20.7098 20.7097 21.2798 19.9997 21.2798C19.2897 21.2798 18.7197 20.7098 18.7197 19.9998C18.7197 19.2898 19.2897 18.7198 19.9997 18.7198C20.7097 18.7198 21.2797 19.2898 21.2797 19.9998ZM19.9997 28.9498C20.7097 28.9498 21.2797 28.3798 21.2797 27.6698C21.2797 26.9598 20.7097 26.3898 19.9997 26.3898C19.2897 26.3898 18.7197 26.9598 18.7197 27.6698C18.7197 28.3798 19.2897 28.9498 19.9997 28.9498Z" fill="#2196F3"/>
<path fill-rule="evenodd" clip-rule="evenodd" d="M20 5C11.7157 5 5 11.7157 5 20C5 28.2843 11.7157 35 20 35C28.2843 35 35 28.2843 35 20C35 11.7157 28.2843 5 20 5ZM3 20C3 10.6112 10.6112 3 20 3C29.3888 3 37 10.6112 37 20C37 29.3888 29.3888 37 20 37C10.6112 37 3 29.3888 3 20Z" fill="#2196F3"/>
</svg>
